<svg width="116" height="18" viewBox="0 0 116 18" fill="none" xmlns="http://www.w3.org/2000/svg">
<path d="M3.80556 1.848C5.02156 1.848 6.07223 2.07733 6.95756 2.536C7.85356 2.984 8.53623 3.62933 9.00556 4.472C9.48556 5.31467 9.72556 6.30667 9.72556 7.448C9.72556 8.58933 9.48556 9.58133 9.00556 10.424C8.53623 11.256 7.85356 11.896 6.95756 12.344C6.07223 12.7813 5.02156 13 3.80556 13H0.333563V1.848H3.80556ZM3.80556 11.8C5.24556 11.8 6.34423 11.4213 7.10156 10.664C7.8589 9.896 8.23756 8.824 8.23756 7.448C8.23756 6.06133 7.85356 4.97867 7.08556 4.2C6.32823 3.42133 5.2349 3.032 3.80556 3.032H1.78956V11.8H3.80556ZM12.3981 2.808C12.1207 2.808 11.8861 2.712 11.6941 2.52C11.5021 2.328 11.4061 2.09333 11.4061 1.816C11.4061 1.53867 11.5021 1.304 11.6941 1.112C11.8861 0.919999 12.1207 0.823999 12.3981 0.823999C12.6647 0.823999 12.8887 0.919999 13.0701 1.112C13.2621 1.304 13.3581 1.53867 13.3581 1.816C13.3581 2.09333 13.2621 2.328 13.0701 2.52C12.8887 2.712 12.6647 2.808 12.3981 2.808ZM13.1021 4.232V13H11.6461V4.232H13.1021ZM19.1996 4.088C19.9569 4.088 20.6182 4.25333 21.1836 4.584C21.7596 4.91467 22.1862 5.33067 22.4636 5.832V4.232H23.9356V13.192C23.9356 13.992 23.7649 14.7013 23.4236 15.32C23.0822 15.9493 22.5916 16.44 21.9516 16.792C21.3222 17.144 20.5862 17.32 19.7436 17.32C18.5916 17.32 17.6316 17.048 16.8636 16.504C16.0956 15.96 15.6422 15.2187 15.5036 14.28H16.9436C17.1036 14.8133 17.4342 15.24 17.9356 15.56C18.4369 15.8907 19.0396 16.056 19.7436 16.056C20.5436 16.056 21.1942 15.8053 21.6956 15.304C22.2076 14.8027 22.4636 14.0987 22.4636 13.192V11.352C22.1756 11.864 21.7489 12.2907 21.1836 12.632C20.6182 12.9733 19.9569 13.144 19.1996 13.144C18.4209 13.144 17.7116 12.952 17.0716 12.568C16.4422 12.184 15.9462 11.6453 15.5836 10.952C15.2209 10.2587 15.0396 9.46933 15.0396 8.584C15.0396 7.688 15.2209 6.904 15.5836 6.232C15.9462 5.54933 16.4422 5.02133 17.0716 4.648C17.7116 4.27467 18.4209 4.088 19.1996 4.088ZM22.4636 8.6C22.4636 7.93867 22.3302 7.36267 22.0636 6.872C21.7969 6.38133 21.4342 6.008 20.9756 5.752C20.5276 5.48533 20.0316 5.352 19.4876 5.352C18.9436 5.352 18.4476 5.48 17.9996 5.736C17.5516 5.992 17.1942 6.36533 16.9276 6.856C16.6609 7.34667 16.5276 7.92267 16.5276 8.584C16.5276 9.256 16.6609 9.84267 16.9276 10.344C17.1942 10.8347 17.5516 11.2133 17.9996 11.48C18.4476 11.736 18.9436 11.864 19.4876 11.864C20.0316 11.864 20.5276 11.736 20.9756 11.48C21.4342 11.2133 21.7969 10.8347 22.0636 10.344C22.3302 9.84267 22.4636 9.26133 22.4636 8.6ZM27.1481 2.808C26.8707 2.808 26.6361 2.712 26.4441 2.52C26.2521 2.328 26.1561 2.09333 26.1561 1.816C26.1561 1.53867 26.2521 1.304 26.4441 1.112C26.6361 0.919999 26.8707 0.823999 27.1481 0.823999C27.4147 0.823999 27.6387 0.919999 27.8201 1.112C28.0121 1.304 28.1081 1.53867 28.1081 1.816C28.1081 2.09333 28.0121 2.328 27.8201 2.52C27.6387 2.712 27.4147 2.808 27.1481 2.808ZM27.8521 4.232V13H26.3961V4.232H27.8521ZM32.1096 5.432V10.6C32.1096 11.0267 32.2002 11.3307 32.3816 11.512C32.5629 11.6827 32.8776 11.768 33.3256 11.768H34.3976V13H33.0856C32.2749 13 31.6669 12.8133 31.2616 12.44C30.8562 12.0667 30.6536 11.4533 30.6536 10.6V5.432H29.5176V4.232H30.6536V2.024H32.1096V4.232H34.3976V5.432H32.1096ZM35.6177 8.584C35.6177 7.688 35.799 6.904 36.1617 6.232C36.5244 5.54933 37.0204 5.02133 37.6497 4.648C38.2897 4.27467 38.999 4.088 39.7777 4.088C40.5457 4.088 41.2124 4.25333 41.7777 4.584C42.343 4.91467 42.7644 5.33067 43.0417 5.832V4.232H44.5137V13H43.0417V11.368C42.7537 11.88 42.3217 12.3067 41.7457 12.648C41.1804 12.9787 40.519 13.144 39.7617 13.144C38.983 13.144 38.279 12.952 37.6497 12.568C37.0204 12.184 36.5244 11.6453 36.1617 10.952C35.799 10.2587 35.6177 9.46933 35.6177 8.584ZM43.0417 8.6C43.0417 7.93867 42.9084 7.36267 42.6417 6.872C42.375 6.38133 42.0124 6.008 41.5537 5.752C41.1057 5.48533 40.6097 5.352 40.0657 5.352C39.5217 5.352 39.0257 5.48 38.5777 5.736C38.1297 5.992 37.7724 6.36533 37.5057 6.856C37.239 7.34667 37.1057 7.92267 37.1057 8.584C37.1057 9.256 37.239 9.84267 37.5057 10.344C37.7724 10.8347 38.1297 11.2133 38.5777 11.48C39.0257 11.736 39.5217 11.864 40.0657 11.864C40.6097 11.864 41.1057 11.736 41.5537 11.48C42.0124 11.2133 42.375 10.8347 42.6417 10.344C42.9084 9.84267 43.0417 9.26133 43.0417 8.6ZM48.4302 1.16V13H46.9742V1.16H48.4302Z" fill="black"/>
<path d="M61.7879 10.872H57.3399L56.6039 13H54.2519L58.2679 1.816H60.8759L64.8919 13H62.5239L61.7879 10.872ZM61.1799 9.08L59.5639 4.408L57.9479 9.08H61.1799ZM69.8651 3.992C70.5264 3.992 71.1077 4.12533 71.6091 4.392C72.1104 4.648 72.5051 4.984 72.7931 5.4V4.136H75.0491V13.064C75.0491 13.8853 74.8837 14.616 74.5531 15.256C74.2224 15.9067 73.7264 16.4187 73.0651 16.792C72.4037 17.176 71.6037 17.368 70.6651 17.368C69.4064 17.368 68.3717 17.0747 67.5611 16.488C66.7611 15.9013 66.3077 15.1013 66.2011 14.088H68.4251C68.5424 14.4933 68.7931 14.8133 69.1771 15.048C69.5717 15.2933 70.0464 15.416 70.6011 15.416C71.2517 15.416 71.7797 15.2187 72.1851 14.824C72.5904 14.44 72.7931 13.8533 72.7931 13.064V11.688C72.5051 12.104 72.1051 12.4507 71.5931 12.728C71.0917 13.0053 70.5157 13.144 69.8651 13.144C69.1184 13.144 68.4357 12.952 67.8171 12.568C67.1984 12.184 66.7077 11.6453 66.3451 10.952C65.9931 10.248 65.8171 9.44267 65.8171 8.536C65.8171 7.64 65.9931 6.84533 66.3451 6.152C66.7077 5.45867 67.1931 4.92533 67.8011 4.552C68.4197 4.17867 69.1077 3.992 69.8651 3.992ZM72.7931 8.568C72.7931 8.024 72.6864 7.56 72.4731 7.176C72.2597 6.78133 71.9717 6.48267 71.6091 6.28C71.2464 6.06667 70.8571 5.96 70.4411 5.96C70.0251 5.96 69.6411 6.06133 69.2891 6.264C68.9371 6.46667 68.6491 6.76533 68.4251 7.16C68.2117 7.544 68.1051 8.00267 68.1051 8.536C68.1051 9.06933 68.2117 9.53867 68.4251 9.944C68.6491 10.3387 68.9371 10.6427 69.2891 10.856C69.6517 11.0693 70.0357 11.176 70.4411 11.176C70.8571 11.176 71.2464 11.0747 71.6091 10.872C71.9717 10.6587 72.2597 10.36 72.4731 9.976C72.6864 9.58133 72.7931 9.112 72.7931 8.568ZM85.4768 8.376C85.4768 8.696 85.4555 8.984 85.4128 9.24H78.9328C78.9861 9.88 79.2101 10.3813 79.6048 10.744C79.9995 11.1067 80.4848 11.288 81.0608 11.288C81.8928 11.288 82.4848 10.9307 82.8368 10.216H85.2528C84.9968 11.0693 84.5061 11.7733 83.7808 12.328C83.0555 12.872 82.1648 13.144 81.1088 13.144C80.2555 13.144 79.4875 12.9573 78.8048 12.584C78.1328 12.2 77.6048 11.6613 77.2208 10.968C76.8475 10.2747 76.6608 9.47467 76.6608 8.568C76.6608 7.65067 76.8475 6.84533 77.2208 6.152C77.5941 5.45867 78.1168 4.92533 78.7888 4.552C79.4608 4.17867 80.2341 3.992 81.1088 3.992C81.9515 3.992 82.7035 4.17333 83.3648 4.536C84.0368 4.89867 84.5541 5.416 84.9168 6.088C85.2901 6.74933 85.4768 7.512 85.4768 8.376ZM83.1568 7.736C83.1461 7.16 82.9381 6.70133 82.5328 6.36C82.1275 6.008 81.6315 5.832 81.0448 5.832C80.4901 5.832 80.0208 6.00267 79.6368 6.344C79.2635 6.67467 79.0341 7.13867 78.9488 7.736H83.1568ZM92.0238 4.008C93.0798 4.008 93.9331 4.344 94.5838 5.016C95.2345 5.67733 95.5598 6.60533 95.5598 7.8V13H93.3198V8.104C93.3198 7.4 93.1438 6.86133 92.7918 6.488C92.4398 6.104 91.9598 5.912 91.3518 5.912C90.7331 5.912 90.2425 6.104 89.8798 6.488C89.5278 6.86133 89.3518 7.4 89.3518 8.104V13H87.1118V4.136H89.3518V5.24C89.6505 4.856 90.0291 4.55733 90.4878 4.344C90.9571 4.12 91.4691 4.008 92.0238 4.008ZM97.1139 8.568C97.1139 7.65067 97.3006 6.85067 97.6739 6.168C98.0473 5.47467 98.5646 4.94133 99.2259 4.568C99.8873 4.184 100.645 3.992 101.498 3.992C102.597 3.992 103.503 4.26933 104.218 4.824C104.943 5.368 105.429 6.136 105.674 7.128H103.258C103.13 6.744 102.911 6.44533 102.602 6.232C102.303 6.008 101.93 5.896 101.482 5.896C100.842 5.896 100.335 6.13067 99.9619 6.6C99.5886 7.05867 99.4019 7.71467 99.4019 8.568C99.4019 9.41067 99.5886 10.0667 99.9619 10.536C100.335 10.9947 100.842 11.224 101.482 11.224C102.389 11.224 102.981 10.8187 103.258 10.008H105.674C105.429 10.968 104.943 11.7307 104.218 12.296C103.493 12.8613 102.586 13.144 101.498 13.144C100.645 13.144 99.8873 12.9573 99.2259 12.584C98.5646 12.2 98.0473 11.6667 97.6739 10.984C97.3006 10.2907 97.1139 9.48533 97.1139 8.568ZM115.795 4.136L110.307 17.192H107.923L109.843 12.776L106.291 4.136H108.803L111.091 10.328L113.411 4.136H115.795Z" fill="#165DF5"/>
</svg>
